<?xml version="1.0" encoding="UTF-8"?>
<svg xmlns="http://www.w3.org/2000/svg" xmlns:xlink="http://www.w3.org/1999/xlink" width="24px" height="24px" viewBox="0 0 24 24" version="1.1">
<g id="surface1">
<path style=" stroke:none;fill-rule:nonzero;fill:rgb(100%,37.254902%,0%);fill-opacity:1;" d="M 9.691406 23.773438 C 9.816406 23.796875 9.933594 23.714844 9.953125 23.59375 L 11.445312 15.144531 L 12.554688 15.144531 L 14.042969 23.59375 C 14.0625 23.714844 14.183594 23.796875 14.300781 23.773438 C 19.589844 22.746094 23.640625 18.246094 23.976562 12.742188 L 23.976562 12.746094 C 23.976562 12.738281 23.988281 12.503906 23.992188 12.386719 C 23.992188 12.375 23.992188 12.359375 23.992188 12.347656 C 23.996094 12.304688 23.996094 12.261719 23.996094 12.21875 L 23.996094 12.167969 C 23.996094 12.113281 23.996094 12.058594 23.996094 12.003906 C 23.996094 6.167969 19.828125 1.304688 14.304688 0.230469 C 14.183594 0.203125 14.0625 0.285156 14.042969 0.410156 L 12.554688 8.855469 L 11.445312 8.855469 L 9.957031 0.40625 C 9.9375 0.285156 9.816406 0.203125 9.699219 0.226562 C 4.40625 1.253906 0.359375 5.753906 0.0234375 11.257812 L 0.0234375 11.253906 C 0.0234375 11.261719 0.0078125 11.496094 0.0078125 11.613281 C 0.0078125 11.625 0.0078125 11.640625 0.00390625 11.652344 C 0.00390625 11.695312 0.00390625 11.738281 0.00390625 11.78125 L 0.00390625 11.832031 C 0.00390625 11.886719 0 11.941406 0 11.996094 C 0 17.835938 4.171875 22.699219 9.691406 23.773438 Z M 9.691406 23.773438 "/>
</g>
</svg>
